<svg width="32" height="32" viewBox="0 0 32 32" fill="none" xmlns="http://www.w3.org/2000/svg">
<path d="M15.8934 10.0268L16.68 11.8668C16.7334 12.0268 16.88 12.1201 17.0267 12.1334L19.0267 12.3201C19.4534 12.3601 19.6134 12.8801 19.3067 13.1601L17.8 14.4801C17.68 14.5868 17.6267 14.7468 17.6667 14.8934L18.1067 16.8534C18.2 17.2668 17.76 17.5868 17.3867 17.3734L15.6667 16.3468C15.5334 16.2668 15.36 16.2668 15.2267 16.3468L13.5067 17.3734C13.1467 17.5868 12.6934 17.2668 12.7867 16.8534L13.2267 14.8934C13.2667 14.7468 13.2134 14.5868 13.0934 14.4801L11.5867 13.1601C11.2667 12.8801 11.44 12.3601 11.8667 12.3201L13.8667 12.1334C14.0267 12.1201 14.16 12.0268 14.2267 11.8801L15.0134 10.0401C15.1734 9.64009 15.72 9.64009 15.8934 10.0268Z" stroke="#F0C932" stroke-width="1.33333" stroke-miterlimit="10" stroke-linecap="round" stroke-linejoin="round"/>
<path d="M24.5165 13.9263C24.5509 8.91891 20.5196 4.83169 15.5122 4.79723C10.5048 4.76277 6.4176 8.79412 6.38314 13.8015C6.34868 18.8089 10.38 22.8961 15.3874 22.9306C20.3948 22.965 24.482 18.9337 24.5165 13.9263Z" stroke="#F0C932" stroke-width="1.33333" stroke-miterlimit="10" stroke-linecap="round" stroke-linejoin="round"/>
<path d="M14.2133 22.8401L11.96 28.5067L9.10665 25.2401L4.79999 25.6401L7.65332 18.4934" stroke="#F0C932" stroke-width="1.33333" stroke-miterlimit="10" stroke-linecap="round" stroke-linejoin="round"/>
<path d="M16.6667 22.8401L18.9334 28.5067L21.7734 25.2401L26.0934 25.6401L23.2267 18.4934" stroke="#F0C932" stroke-width="1.33333" stroke-miterlimit="10" stroke-linecap="round" stroke-linejoin="round"/>
</svg>
